# xmcd
#
# Track frame offsets:
# 225
# 17616
# 30837
# 44099
# 58457
# 80336
# 106020
# 118407
# 128893
# 146565
# 160574
# 170606
# 182518
# 196296
# 233514
# 242161
#
# Disc length: 3591 seconds
#
#
# Revision: 0
# Processed by: cddbd v1.5PL3 Copyright (c) Steve Scherf et al.
# Submitted via: FreeRIP 2.52 
#
DISCID=d10e0410
DTITLE=The Twangbangers - Tour of the USA
DYEAR=2001
DGENRE=Country
TTITLE0=Truckstop at the End of the World/Bill Kirchen
TTITLE1=Back to Back/Redd Volkaert
TTITLE2=Here I am in Dallas/Dallas Wayne
TTITLE3=Peace Love and Understanding/Joe Goldmark
TTITLE4=The Stuff Inside/Dallas Wayne
TTITLE5=Just Like Tom Thumb's Blues/Bill Kirchen
TTITLE6=Big Big Love/Redd Volkaert
TTITLE7=Lonely Weekends/Joe Goldmark
TTITLE8=Dim Lights Thick Smoke/Bill Kirchen
TTITLE9=Bouncing Beer Cans Off The Jukebox/Dallas Wayne
TTITLE10=Chee-Z/Redd Volkaert
TTITLE11=These Arms of Mine/Joe Goldmark
TTITLE12=Big Thinkin'/Dallas Wayne
TTITLE13=Hot Rod Lincoln/Bill Kirchen
TTITLE14=Because They're Young/Joe Goldmark
TTITLE15=Redd WHite and Blue/Redd Volkaert
EXTD=
EXTT0=
EXTT1=
EXTT2=
EXTT3=
EXTT4=
EXTT5=
EXTT6=
EXTT7=
EXTT8=
EXTT9=
EXTT10=
EXTT11=
EXTT12=
EXTT13=
EXTT14=
EXTT15=
PLAYORDER=
